<svg enable-background="new 0 0 128 128" viewBox="0 0 128 128" xmlns="http://www.w3.org/2000/svg" xmlns:xlink="http://www.w3.org/1999/xlink"><linearGradient id="a" gradientUnits="userSpaceOnUse" x1="64" x2="64" y1="8.2083" y2="24.751"><stop offset=".3656" stop-color="#f57c00"/><stop offset="1" stop-color="#e65100"/></linearGradient><clipPath id="b"><path d="m86.6 50.4c-4.1-8.1-6.2-8.6-6.2-8.6h-33.6s-1.3.5-5.3 8.6c-5.2 10.7-6.5 23.7-6.5 34.2v39.6h58.2v-39.6c-.1-10.5-1.3-23.6-6.6-34.2z"/></clipPath><linearGradient id="c" gradientUnits="userSpaceOnUse" x1="64.1" x2="64.1" y1="115.25" y2="51.15"><stop offset=".00020032" stop-color="#b33712"/><stop offset=".2066" stop-color="#bf360c"/><stop offset="1" stop-color="#f4511e"/></linearGradient><clipPath id="d"><path d="m86.6 50.4c-4.1-8.1-6.2-8.6-6.2-8.6h-33.6s-1.3.5-5.3 8.6c-5.2 10.7-6.5 23.7-6.5 34.2v39.6h58.2v-39.6c-.1-10.5-1.3-23.6-6.6-34.2z"/></clipPath><linearGradient id="e"><stop offset="0" stop-color="#ff7043" stop-opacity="0"/><stop offset=".4894" stop-color="#ff7043"/><stop offset="1" stop-color="#ffab91"/></linearGradient><linearGradient id="f" gradientUnits="userSpaceOnUse" x1="55.85" x2="55.85" xlink:href="#e" y1="111" y2="26.713"/><linearGradient id="g" gradientUnits="userSpaceOnUse" x1="54.25" x2="54.25" xlink:href="#e" y1="111" y2="26.713"/><linearGradient id="h" gradientUnits="userSpaceOnUse" x1="45.5" x2="45.5" xlink:href="#e" y1="111" y2="26.713"/><linearGradient id="i" gradientUnits="userSpaceOnUse" x1="82.7" x2="82.7" xlink:href="#e" y1="111" y2="26.713"/><linearGradient id="j" gradientUnits="userSpaceOnUse" x1="64" x2="64" xlink:href="#e" y1="111" y2="26.713"/><linearGradient id="k" gradientUnits="userSpaceOnUse" x1="72.15" x2="72.15" xlink:href="#e" y1="111" y2="26.713"/><linearGradient id="l" gradientUnits="userSpaceOnUse" x1="73.75" x2="73.75" xlink:href="#e" y1="111" y2="26.713"/><linearGradient id="m" gradientUnits="userSpaceOnUse" x1="75.75" x2="75.75" xlink:href="#e" y1="111" y2="26.713"/><linearGradient id="n" gradientUnits="userSpaceOnUse" x1="82.6" x2="82.6" xlink:href="#e" y1="111" y2="26.713"/><linearGradient id="o" gradientUnits="userSpaceOnUse" x1="45.3" x2="45.3" xlink:href="#e" y1="111" y2="26.713"/><linearGradient id="p" gradientUnits="userSpaceOnUse" x1="52.2" x2="52.2" xlink:href="#e" y1="111" y2="26.713"/><linearGradient id="q" gradientUnits="userSpaceOnUse" x1="64" x2="64" y1="124.17" y2="98.07"><stop offset=".5876" stop-color="#ff7043"/><stop offset="1" stop-color="#f4511e"/></linearGradient><circle cx="64" cy="22.6" fill="#ffa000" r="4.9"/><circle cx="64" cy="21" fill="#ffca28" r="2.9"/><path d="m61.1 11.1c0-2.6 2.9-7 2.9-7s2.9 4.2 2.9 7c0 1.6-1.3 2.9-2.9 2.9s-2.9-1.3-2.9-2.9z" fill="#ffa000"/><path d="m62.2 9.7c0-2.1 1.8-5.6 1.8-5.6s1.8 3.4 1.8 5.6c0 1.3-.8 2.3-1.8 2.3s-1.8-1-1.8-2.3z" fill="#ffca28"/><path d="m62 13.7h3.8c1.2 0 2.1.9 2.1 2.1s-.9 2.1-2.1 2.1h-3.8c-1.2 0-2.1-.9-2.1-2.1s1-2.1 2.1-2.1z" fill="#ffca28"/><path d="m60 16c.1 1 1 1.9 2.1 1.9h3.8c1.1 0 1.9-.8 2.1-1.9z" fill="#ffa000"/><path d="m64 5.9c.5.8 1.1 2 1.4 3v.1c.3.8.4 1.5.4 2.1 0 .7-.4 1.4-1.1 1.7 0 0-.4.1-.8.1s-.8-.1-.8-.1c-.7-.3-1.1-1-1.1-1.7 0-.5.1-1.2.4-2 .5-1.1 1.1-2.3 1.6-3.2m1.8 8.8c.6 0 1.1.5 1.1 1.1v.1c-.1.5-.4 1-1 1h-3.9c-.6 0-1.1-.5-1.1-1.1s.5-1.1 1.1-1.1zm-.8 4.1c1.7.5 2.9 2 2.9 3.8 0 2.2-1.8 3.9-3.9 3.9s-3.9-1.8-3.9-3.9c0-1.8 1.2-3.3 2.9-3.8 0 0 .5-.2 1-.2s1 .2 1 .2zm-1-14.7s-1.8 2.6-2.4 4.7c-.3.8-.5 1.6-.5 2.3 0 1.1.7 2.1 1.7 2.6h-.8c-1.2 0-2.1.9-2.1 2.1s.9 2.1 2.1 2.1h.7c-2.1.6-3.6 2.5-3.6 4.8 0 2.7 2.2 4.9 4.9 4.9s4.9-2.2 4.9-4.9c0-2.3-1.5-4.2-3.6-4.8h.6c1.1 0 1.9-.8 2-1.9 0-.1 0-.1 0-.2 0-1.1-.9-2.1-2.1-2.1h-.6c1-.5 1.7-1.4 1.7-2.6 0-.7-.2-1.6-.5-2.4-.6-2.1-2.4-4.6-2.4-4.6z" fill="url(#a)"/><path d="m44 72.4-11.5-.2.7-7.4h11.2z" fill="#93240a"/><path d="m40.2 124.2h-16.2l.2-21.2h16z" fill="#7a230f"/><path d="m41.1 103h-15.1l.3-10.6h14.8z" fill="#93240a"/><path d="m44.1 92.4h-15.5l.3-10.6h15.2z" fill="#93240a"/><path d="m45.9 82.3-15.3-.5.3-8.6 15-1.5z" fill="#93240a"/><path d="m42.2 61.7c-.6-.3-1.1-.8-1.3-1.3-.5-1.1-1.5-1.8-2.7-2 .5-.2.8-.6.8-1.1 0-.7-.6-1.2-1.3-1.2s-1.3.6-1.3 1.2c0 .5.3.9.8 1.1-1.2.2-2.2 1-2.7 2-.3.6-.7 1.1-1.3 1.4-.5.3-1.1.7-1.1 1.5 0 1.1 1 2 2.2 2h7.2c1.1 0 2-.8 2.1-1.8-.3-1.1-.9-1.6-1.4-1.8z" fill="#93240a" stroke="#553a30" stroke-miterlimit="10"/><path d="m24.2 103h19.1" fill="none" stroke="#553a30" stroke-linecap="round" stroke-miterlimit="10" stroke-width="2.1851"/><path d="m26.3 92.4h18.3" fill="none" stroke="#553a30" stroke-linecap="round" stroke-miterlimit="10" stroke-width="2.1851"/><path d="m28.6 82.3h16.5" fill="none" stroke="#553a30" stroke-linecap="round" stroke-miterlimit="10" stroke-width="2.1851"/><path d="m30.9 73.2h12.9" fill="none" stroke="#553a30" stroke-linecap="round" stroke-miterlimit="10" stroke-width="2.1851"/><path d="m84 72.4 11.5-.2-.7-7.4h-11.2z" fill="#93240a"/><path d="m87.8 124.2h16.2l-.2-21.2h-16z" fill="#7a230f"/><path d="m86.9 103h15.1l-.3-10.6h-14.8z" fill="#93240a"/><path d="m83.9 92.4h15.4l-.1-10.6h-15.3z" fill="#93240a"/><path d="m82.1 82.3 15.2-.5-.1-8.6-15.1-1.5z" fill="#93240a"/><g stroke-miterlimit="10"><path d="m85.8 61.7c.6-.3 1.1-.8 1.3-1.3.5-1.1 1.5-1.8 2.7-2-.5-.2-.8-.6-.8-1.1 0-.7.6-1.2 1.3-1.2s1.3.6 1.3 1.2c0 .5-.3.9-.8 1.1 1.2.2 2.2 1 2.7 2 .3.6.7 1.1 1.3 1.4.5.3 1.1.7 1.1 1.5 0 1.1-1 2-2.2 2h-7.2c-1.1 0-2-.8-2.1-1.8.3-1.1.9-1.6 1.4-1.8z" fill="#93240a" stroke="#553a30"/><path d="m103.8 103h-19.1" fill="none" stroke="#553a30" stroke-linecap="round" stroke-width="2.1851"/><path d="m101.7 92.4h-18.3" fill="none" stroke="#553a30" stroke-linecap="round" stroke-width="2.1851"/><path d="m99.3 82.3h-16.4" fill="none" stroke="#553a30" stroke-linecap="round" stroke-width="2.1851"/><path d="m97.2 73.2h-13" fill="none" stroke="#553a30" stroke-linecap="round" stroke-width="2.1851"/><path d="m52.3 33.8s1.3-8.6 11.5-8.6 11.6 8.6 11.6 8.6z" fill="#bf360c" stroke="#91240a" stroke-width="2"/></g><path d="m51.1 35.8h25.8v6.9h-25.8z" fill="#553a30"/><g clip-path="url(#b)"><path d="m86.6 50.4c-5.2-10.7-6.2-8.6-6.2-8.6h-32.7s-1.1-2.1-6.2 8.6-6.5 18.2-6.5 28.8v45h58.2v-45c-.1-10.6-1.5-18.1-6.6-28.8z" fill="url(#c)"/></g><g clip-path="url(#d)"><path d="m53.4 62.6h3.8l1.1-1.8h-4.5z" fill="url(#f)"/><path d="m51.9 70.9h3.7l1-1.8h-4.5z" fill="url(#g)"/><path d="m43 85.7h5v1.8h-5z" fill="url(#h)"/><path d="m93.1 87.5v-1.8h-4.2v-1.6c0-1.7 0-3.4-.1-5h4.1v-1.8h-4.1c-.1-2.3-.3-4.4-.5-6.5h4l-.3-1.7h-4c-.3-2.3-.7-4.5-1.2-6.5h3.9l-.4-1.8h-4c-.6-2.3-1.3-4.5-2.2-6.5h4.1l-.8-1.8h-4.1c-.1-.2-.2-.5-.3-.7-1-2.2-2-4.1-2.9-5.8h4.2l-.9-1.8h-4.3c-3.3-5.2-5.3-5.4-5.4-5.5l-1.4 1.1s4.1 2.2 9.1 12.8c4 8.4 5.7 17.8 5.7 31.6v40h1.8v-28.4h4.2v-1.8h-4.2v-6.5z" fill="url(#i)"/><path d="m71.4 52.5h-1.7-2.9-1.9v-4.6h-1.8v4.6h-6.5l-.7 1.8h11.8 1 3.4z" fill="url(#j)"/><path d="m74.2 60.8h-4.5l1.1 1.8h3.8z" fill="url(#k)"/><path d="m71.4 69.1 1 1.8h3.7l-.2-1.8z" fill="url(#l)"/><path d="m84.9 79.2v-1.8h-5.1v-6.5h4.4l-.2-1.8h-4.2c-.1-2.2-.4-4.4-.8-6.5h3.7l-.4-1.8h-3.7c-.5-2.3-1.2-4.5-1.9-6.5h3.5l-.8-1.8h-3.4c-.9-2.4-1.9-4.6-2.9-6.5h3.2l-.9-1.8h-3.2c-2.8-3.6-3.9-3.5-4.1-3.8l-1.5 1c.2.2 11.4 13.1 11.4 29.5v10.1l1.8 3v-4.8z" fill="url(#m)"/><path d="m80.1 85.7h5v1.8h-5z" fill="url(#n)"/><path d="m55.7 39.7-1.4-1.1c-.1.2-2.2.3-5.4 5.5h-4.3l-.9 1.9h4.2c-.9 1.7-1.9 3.7-3 5.8-.1.2-.2.5-.3.7h-4.1l-.8 1.8h4.1c-.8 2.1-1.6 4.2-2.2 6.5h-4l-.4 1.8h3.9c-.5 2.1-.9 4.2-1.2 6.5h-4l-.2 1.8h4c-.2 2.1-.4 4.2-.5 6.5h-4.1v1.8h4.1c-.1 1.6-.1 3.2-.1 5v1.6h-4.2v1.8h4.2v6.5h-4.2v1.8h4.2v28.3h1.8v-40c0-13.8 1.7-23.3 5.7-31.6 5-10.6 9.1-12.8 9.1-12.9z" fill="url(#o)"/><path d="m61 40c-.2.3-1.9.5-5.2 4.2h-3.2l-.9 1.8h3.2c-1 1.9-2 4.1-2.9 6.5h-3.5l-.8 1.8h3.5c-.7 2.1-1.4 4.3-1.9 6.5h-3.7l-.4 1.8h3.8c-.4 2.1-.7 4.3-.8 6.5h-4.2l-.2 1.8h4.4v6.5h-5.1v1.8h5.1v4.8l1.8-3.3v-9.8c0-16.4 11.2-29.4 11.3-29.5z" fill="url(#p)"/><path d="m59.8 45.9h8.4l-.9-1.8h-2.4v-2.3h-1.8v2.3h-2.4z" fill="url(#j)"/></g><path d="m59.5 64.4h9v7.6h-9z" fill="#ff7043"/><path d="m68.6 72.1h-9.2l-10.6 20.7h30.4z" fill="#f4511e"/><path d="m44.2 98.1h39.6v26.1h-39.6z" fill="url(#q)"/><path d="m59.5 63.9c0-2 2-3.5 4.5-3.5s4.5 1.6 4.5 3.5z" fill="#ff8a65"/><path d="m69.2 63h-10.3c-.9 0-1.7.8-1.7 1.7s.8 1.7 1.7 1.7h10.3c.9 0 1.7-.8 1.7-1.7-.1-1-.8-1.7-1.7-1.7z" fill="#ffab91"/><path d="m80.7 89.3-33.2-.5-4.9 9.3h21.4 21.4z" fill="#ffab91"/><path d="m74.4 77.3-20.7-.1-4.2 7.9h14.5 14.5z" fill="#ffab91"/><path d="m69.5 68.3h-5.5-5.5l-2.9 5.5h8.4 8.4z" fill="#ffab91"/><path d="m85.4 98.1-4.7-8.8h-3.4l-2.1-4.2h3.3l-4.1-7.7h-3.1l-1.8-3.6h3l-2.9-5.4h-1v-2h.6c.9 0 1.7-.8 1.7-1.7s-.8-1.7-1.8-1.7h-.8c-.5-1.2-1.8-2.2-3.4-2.5.5-.3.8-.8.8-1.5 0-2.3-3.5-2.3-3.5 0 0 .6.3 1.2.8 1.5-1.6.3-2.9 1.2-3.4 2.5h-.8c-.9 0-1.7.8-1.7 1.7s.8 1.7 1.7 1.7h.6v2h-1l-2.9 5.4h3l-1.8 3.5h-3.1l-4.2 7.8h3.3l-2 3.8h-3.3l-4.8 9.1h1.6v23.4h39.6v-23.3z" fill="none" opacity=".2"/><circle cx="64" cy="58.1" fill="#ffab91" r="2"/><path d="m77.5 31.3h-27c-1.8 0-3.2 1.4-3.2 3.2s1.4 3.2 3.2 3.2h26.9c1.8 0 3.2-1.4 3.2-3.2s-1.4-3.2-3.1-3.2z" fill="#f4511e"/><path d="m53.9 105.2v19h20.2v-19zm18.2 17h-16.2v-15h16.2z" fill="#553a30"/><path d="m55.9 107.2h16.2v17h-16.2z" fill="#6d4c41"/></svg>